#!OML:ASF H:\Dans Jumps\Project 1\Capture day 1\Session 1\subject.ASF
:FULLY-SPECIFIED
:DEGREES
151
root 0.226768 15.6308 -13.5764 21.6408 2.38636 -0.925872
lowerback 23.2221 0.256741 -1.97172
upperback 2.97257 0.189466 3.18096
thorax -9.71521 0.232268 4.60782
lowerneck -20.1381 0.835145 -0.631811
upperneck 17.49 1.80988 -2.18914
head 8.80722 0.560173 -0.4034
rclavicle -1.78906e-014 2.5842e-014
rhumerus -13.0842 -2.34436 -79.0654
rradius 39.7076
rwrist 22.0456
rhand -22.4748 -27.155
rfingers 7.12502
rthumb 3.95028 -57.0982
lclavicle -1.78906e-014 2.5842e-014
lhumerus -11.9853 -11.9162 81.8568
lradius 35.4629
lwrist 25.2448
lhand -28.599 -5.13405
lfingers 7.12502
lthumb -1.96445 24.8366
rfemur -52.76 -4.38641 22.087
rtibia 67.1354
rfoot -28.6582 -15.4397
rtoes -9.07659
lfemur -51.7855 5.09502 -18.9233
ltibia 65.6528
lfoot -26.0544 15.7295
ltoes -16.3952
152
root 0.226293 15.829 -13.4047 20.711 2.46176 -0.874995
lowerback 22.4163 0.207979 -1.99247
upperback 3.16819 0.118104 3.14471
thorax -9.05896 0.181312 4.57834
lowerneck -19.2632 0.783848 -0.616301
upperneck 17.8866 1.73002 -2.17965
head 8.78808 0.52645 -0.415739
rclavicle 8.34896e-015 5.1684e-015
rhumerus -12.0901 -1.86248 -79.5094
rradius 39.8144
rwrist 21.887
rhand -22.7117 -27.1366
rfingers 7.12502
rthumb 3.72153 -57.0839
lclavicle 8.34896e-015 5.1684e-015
lhumerus -10.8252 -12.589 81.9129
lradius 35.9536
lwrist 25.6258
lhand -28.6424 -5.30654
lfingers 7.12502
lthumb -2.00639 24.6638
rfemur -49.9028 -4.62341 21.9737
rtibia 64.9909
rfoot -27.3957 -14.952
rtoes -9.96867
lfemur -48.9484 5.18408 -18.854
ltibia 63.4294
lfoot -24.7468 15.0127
ltoes -17.128
153
root 0.226764 16.0342 -13.2296 19.8142 2.53443 -0.841272
lowerback 21.5053 0.166508 -1.98647
upperback 3.37539 0.063854 3.11293
thorax -8.33749 0.136202 4.53062
lowerneck -18.339 0.71939 -0.628081
upperneck 18.3131 1.63519 -2.14899
head 8.76836 0.486178 -0.418245
rclavicle 1.07344e-014 3.18055e-015
rhumerus -11.1934 -1.51348 -79.9326
rradius 39.7789
rwrist 21.7335
rhand -23.0391 -26.9983
rfingers 7.12502
rthumb 3.40534 -56.9509
lclavicle 1.07344e-014 3.18055e-015
lhumerus -9.65405 -13.1673 82.0313
lradius 36.2255
lwrist 26.0093
lhand -28.7338 -5.51284
lfingers 7.12502
lthumb -2.0946 24.4566
rfemur -47.1724 -4.86117 21.8573
rtibia 63.0071
rfoot -25.9743 -14.3072
rtoes -10.8804
lfemur -46.2545 5.30408 -18.7633
ltibia 61.3887
lfoot -23.3179 14.1027
ltoes -17.8318
154
root 0.228519 16.2478 -13.0507 18.9699 2.60572 -0.823336
lowerback 20.4816 0.131049 -1.95044
upperback 3.58715 0.024614 3.08215
thorax -7.55448 0.0965897 4.46045
lowerneck -17.3575 0.640728 -0.671916
upperneck 18.7488 1.51971 -2.07925
head 8.73933 0.438442 -0.404604
rclavicle -1.98785e-015 1.70955e-014
rhumerus -10.3692 -1.27077 -80.3338
rradius 39.5711
rwrist 21.7004
rhand -23.4185 -26.7319
rfingers 7.12502
rthumb 3.03896 -56.69
lclavicle -1.98785e-015 1.70955e-014
lhumerus -8.4893 -13.6751 82.2089
lradius 36.2926
lwrist 26.3164
lhand -28.8243 -5.74487
lfingers 7.12502
lthumb -2.18203 24.2237
rfemur -44.5622 -5.10923 21.7367
rtibia 61.0603
rfoot -24.2753 -13.4685
rtoes -11.7728
lfemur -43.6931 5.44991 -18.6495
ltibia 59.402
lfoot -21.6649 12.9234
ltoes -18.4602
155
root 0.231848 16.4032 -12.8763 18.1909 2.67246 -0.820276
lowerback 19.3604 0.101787 -1.89584
upperback 3.7949 -0.00285357 3.05235
thorax -6.72678 0.0622937 4.37682
lowerneck -16.3257 0.548908 -0.750519
upperneck 19.1809 1.38226 -1.961
head 8.69788 0.383241 -0.371098
rclavicle 4.37326e-015 3.10104e-014
rhumerus -9.59244 -1.10309 -80.7167
rradius 39.1852
rwrist 21.853
rhand -23.7442 -26.4014
rfingers 7.12502
rthumb 2.72441 -56.3637
lclavicle 4.37326e-015 3.10104e-014
lhumerus -7.35783 -14.1202 82.4393
lradius 36.1884
lwrist 26.465
lhand -28.962 -6.09205
lfingers 7.12502
lthumb -2.31504 23.8751
rfemur -42.3754 -5.36866 21.6058
rtibia 59.4298
rfoot -22.268 -12.4257
rtoes -12.604
lfemur -41.5535 5.61714 -18.5037
ltibia 57.74
lfoot -19.7591 11.463
ltoes -18.9682
156
root 0.235286 16.6398 -12.6918 17.4714 2.73251 -0.830666
lowerback 18.1741 0.0761768 -1.83819
upperback 3.99842 -0.0256722 3.02485
thorax -5.87081 0.0308583 4.29331
lowerneck -15.2458 0.450519 -0.857638
upperneck 19.5837 1.22962 -1.7992
head 8.63607 0.323562 -0.319372
rclavicle 1.59028e-015 -1.19271e-014
rhumerus -8.83688 -0.975253 -81.0863
rradius 38.6366
rwrist 22.2153
rhand -23.8768 -26.1245
rfingers 7.12502
rthumb 2.59637 -56.0885
lclavicle 1.59028e-015 -1.19271e-014
lhumerus -6.2856 -14.5153 82.708
lradius 35.9632
lwrist 26.4269
lhand -29.1269 -6.50832
lfingers 7.12502
lthumb -2.47424 23.4571
rfemur -40.0506 -5.62449 21.4714
rtibia 57.5497
rfoot -19.9372 -11.1924
rtoes -13.2011
lfemur -39.2839 5.78526 -18.3328
ltibia 55.848
lfoot -17.5595 9.76166
ltoes -19.2614
157
root 0.239276 16.8856 -12.5052 16.7952 2.78146 -0.848476
lowerback 16.9663 0.0525892 -1.79425
upperback 4.20171 -0.0492537 3.00027
thorax -5.00445 0.000145139 4.22246
lowerneck -14.1437 0.35178 -0.983628
upperneck 19.9481 1.0715 -1.61243
head 8.55622 0.26228 -0.255976
rclavicle -7.7526e-015 -6.36111e-015
rhumerus -8.09239 -0.858132 -81.4476
rradius 37.9704
rwrist 22.7303
rhand -23.8023 -25.9495
rfingers 7.12502
rthumb 2.66825 -55.9126
lclavicle -7.7526e-015 -6.36111e-015
lhumerus -5.29585 -14.8793 83.0015
lradius 35.6704
lwrist 26.2367
lhand -29.3259 -7.03021
lfingers 7.12502
lthumb -2.66646 22.9329
rfemur -37.879 -5.87624 21.3209
rtibia 55.719
rfoot -17.2697 -9.81597
rtoes -13.4836
lfemur -37.1592 5.93894 -18.1395
ltibia 54.0029
lfoot -15.0052 7.90589
ltoes -19.35
